<svg width="80" height="80" viewBox="0 0 80 80" fill="none" xmlns="http://www.w3.org/2000/svg">
<path d="M40 65C53.8071 65 65 53.8071 65 40C65 26.1929 53.8071 15 40 15C26.1929 15 15 26.1929 15 40C15 53.8071 26.1929 65 40 65Z" fill="#FF4500"/>
<path d="M56.6667 40C56.6667 37.9824 55.0293 36.345 53.0117 36.345C52.0176 36.345 51.1404 36.7251 50.4971 37.3684C48.0117 35.5847 44.5614 34.4152 40.7603 34.269L42.4269 26.4619L47.8363 27.6023C47.8948 28.9766 49.0351 30.0877 50.4386 30.0877C51.8714 30.0877 53.041 28.9181 53.041 27.4853C53.041 26.0526 51.8714 24.883 50.4386 24.883C49.4152 24.883 48.538 25.4678 48.1287 26.345L42.0761 25.0584C41.9006 25.0292 41.7252 25.0584 41.579 25.1462C41.4328 25.2339 41.3451 25.3801 41.2866 25.5555L39.4445 34.269C35.5556 34.3859 32.0761 35.5263 29.5614 37.3684C28.9182 36.7543 28.0117 36.345 27.0468 36.345C25.0293 36.345 23.3918 37.9824 23.3918 40C23.3918 41.4912 24.269 42.7485 25.5556 43.3333C25.4971 43.6842 25.4679 44.0643 25.4679 44.4444C25.4679 50.0584 31.9883 54.5906 40.0585 54.5906C48.1287 54.5906 54.6492 50.0584 54.6492 44.4444C54.6492 44.0643 54.6199 43.7134 54.5614 43.3625C55.7603 42.7777 56.6667 41.4912 56.6667 40V40ZM31.6667 42.6023C31.6667 41.1695 32.8363 40 34.269 40C35.7018 40 36.8714 41.1695 36.8714 42.6023C36.8714 44.035 35.7018 45.2046 34.269 45.2046C32.8363 45.2046 31.6667 44.035 31.6667 42.6023ZM46.1989 49.4736C44.4152 51.2573 41.0234 51.3742 40.0293 51.3742C39.0351 51.3742 35.6141 51.228 33.8597 49.4736C33.5965 49.2105 33.5965 48.7719 33.8597 48.5087C34.1228 48.2456 34.5614 48.2456 34.8246 48.5087C35.9357 49.6198 38.3334 50.0292 40.0585 50.0292C41.7837 50.0292 44.1521 49.6198 45.2924 48.5087C45.5556 48.2456 45.9942 48.2456 46.2573 48.5087C46.462 48.8011 46.462 49.2105 46.1989 49.4736V49.4736ZM45.731 45.2046C44.2983 45.2046 43.1287 44.035 43.1287 42.6023C43.1287 41.1695 44.2983 40 45.731 40C47.1638 40 48.3334 41.1695 48.3334 42.6023C48.3334 44.035 47.1638 45.2046 45.731 45.2046Z" fill="white"/>
</svg>
